<mxfile host="app.diagrams.net" modified="2023-10-19T03:19:38.147Z" agent="Mozilla/5.0 (X11; Linux x86_64; rv:109.0) Gecko/20100101 Firefox/114.0" etag="YrhYztciW6c-fUd0cj5a" version="21.6.6" type="github">
  <diagram name="第 1 页" id="nJTiro2KDOgA4DlnFe6F">
    <mxGraphModel dx="2074" dy="1078" grid="1" gridSize="10" guides="1" tooltips="1" connect="1" arrows="1" fold="1" page="1" pageScale="1" pageWidth="827" pageHeight="1169" math="0" shadow="0">
      <root>
        <mxCell id="0" />
        <mxCell id="1" parent="0" />
        <mxCell id="Ul7BXX21oTJpgW4vxlUO-3" value="" style="edgeStyle=orthogonalEdgeStyle;rounded=0;orthogonalLoop=1;jettySize=auto;html=1;" edge="1" parent="1" source="Ul7BXX21oTJpgW4vxlUO-1" target="Ul7BXX21oTJpgW4vxlUO-2">
          <mxGeometry relative="1" as="geometry" />
        </mxCell>
        <mxCell id="Ul7BXX21oTJpgW4vxlUO-1" value="输入用户名密码" style="rounded=0;whiteSpace=wrap;html=1;" vertex="1" parent="1">
          <mxGeometry x="434" y="50" width="120" height="60" as="geometry" />
        </mxCell>
        <mxCell id="Ul7BXX21oTJpgW4vxlUO-7" value="" style="edgeStyle=orthogonalEdgeStyle;rounded=0;orthogonalLoop=1;jettySize=auto;html=1;" edge="1" parent="1" source="Ul7BXX21oTJpgW4vxlUO-2" target="Ul7BXX21oTJpgW4vxlUO-6">
          <mxGeometry relative="1" as="geometry" />
        </mxCell>
        <mxCell id="Ul7BXX21oTJpgW4vxlUO-2" value="验证必填项" style="whiteSpace=wrap;html=1;rounded=0;" vertex="1" parent="1">
          <mxGeometry x="434" y="130" width="120" height="60" as="geometry" />
        </mxCell>
        <mxCell id="Ul7BXX21oTJpgW4vxlUO-9" value="" style="edgeStyle=orthogonalEdgeStyle;rounded=0;orthogonalLoop=1;jettySize=auto;html=1;" edge="1" parent="1" source="Ul7BXX21oTJpgW4vxlUO-6" target="Ul7BXX21oTJpgW4vxlUO-8">
          <mxGeometry relative="1" as="geometry" />
        </mxCell>
        <mxCell id="Ul7BXX21oTJpgW4vxlUO-22" value="否" style="edgeLabel;html=1;align=center;verticalAlign=middle;resizable=0;points=[];" vertex="1" connectable="0" parent="Ul7BXX21oTJpgW4vxlUO-9">
          <mxGeometry x="0.04" y="-3" relative="1" as="geometry">
            <mxPoint as="offset" />
          </mxGeometry>
        </mxCell>
        <mxCell id="Ul7BXX21oTJpgW4vxlUO-11" value="" style="edgeStyle=orthogonalEdgeStyle;rounded=0;orthogonalLoop=1;jettySize=auto;html=1;" edge="1" parent="1" source="Ul7BXX21oTJpgW4vxlUO-6" target="Ul7BXX21oTJpgW4vxlUO-10">
          <mxGeometry relative="1" as="geometry" />
        </mxCell>
        <mxCell id="Ul7BXX21oTJpgW4vxlUO-25" value="是" style="edgeLabel;html=1;align=center;verticalAlign=middle;resizable=0;points=[];" vertex="1" connectable="0" parent="Ul7BXX21oTJpgW4vxlUO-11">
          <mxGeometry x="-0.64" y="-3" relative="1" as="geometry">
            <mxPoint as="offset" />
          </mxGeometry>
        </mxCell>
        <mxCell id="Ul7BXX21oTJpgW4vxlUO-6" value="是否填写" style="rhombus;whiteSpace=wrap;html=1;rounded=0;" vertex="1" parent="1">
          <mxGeometry x="454" y="210" width="80" height="80" as="geometry" />
        </mxCell>
        <mxCell id="Ul7BXX21oTJpgW4vxlUO-8" value="返回错误信息" style="whiteSpace=wrap;html=1;rounded=0;" vertex="1" parent="1">
          <mxGeometry x="274" y="430" width="120" height="60" as="geometry" />
        </mxCell>
        <mxCell id="Ul7BXX21oTJpgW4vxlUO-13" value="" style="edgeStyle=orthogonalEdgeStyle;rounded=0;orthogonalLoop=1;jettySize=auto;html=1;" edge="1" parent="1" source="Ul7BXX21oTJpgW4vxlUO-10" target="Ul7BXX21oTJpgW4vxlUO-12">
          <mxGeometry relative="1" as="geometry" />
        </mxCell>
        <mxCell id="Ul7BXX21oTJpgW4vxlUO-10" value="验证用户名" style="whiteSpace=wrap;html=1;rounded=0;" vertex="1" parent="1">
          <mxGeometry x="434" y="320" width="120" height="60" as="geometry" />
        </mxCell>
        <mxCell id="Ul7BXX21oTJpgW4vxlUO-14" style="edgeStyle=orthogonalEdgeStyle;rounded=0;orthogonalLoop=1;jettySize=auto;html=1;entryX=1;entryY=0.5;entryDx=0;entryDy=0;" edge="1" parent="1" source="Ul7BXX21oTJpgW4vxlUO-12" target="Ul7BXX21oTJpgW4vxlUO-8">
          <mxGeometry relative="1" as="geometry" />
        </mxCell>
        <mxCell id="Ul7BXX21oTJpgW4vxlUO-24" value="否" style="edgeLabel;html=1;align=center;verticalAlign=middle;resizable=0;points=[];" vertex="1" connectable="0" parent="Ul7BXX21oTJpgW4vxlUO-14">
          <mxGeometry x="0.0333" y="2" relative="1" as="geometry">
            <mxPoint as="offset" />
          </mxGeometry>
        </mxCell>
        <mxCell id="Ul7BXX21oTJpgW4vxlUO-16" value="" style="edgeStyle=orthogonalEdgeStyle;rounded=0;orthogonalLoop=1;jettySize=auto;html=1;" edge="1" parent="1" source="Ul7BXX21oTJpgW4vxlUO-12" target="Ul7BXX21oTJpgW4vxlUO-15">
          <mxGeometry relative="1" as="geometry" />
        </mxCell>
        <mxCell id="Ul7BXX21oTJpgW4vxlUO-26" value="是" style="edgeLabel;html=1;align=center;verticalAlign=middle;resizable=0;points=[];" vertex="1" connectable="0" parent="Ul7BXX21oTJpgW4vxlUO-16">
          <mxGeometry x="0.32" y="2" relative="1" as="geometry">
            <mxPoint as="offset" />
          </mxGeometry>
        </mxCell>
        <mxCell id="Ul7BXX21oTJpgW4vxlUO-12" value="是否正确" style="rhombus;whiteSpace=wrap;html=1;rounded=0;" vertex="1" parent="1">
          <mxGeometry x="454" y="420" width="80" height="80" as="geometry" />
        </mxCell>
        <mxCell id="Ul7BXX21oTJpgW4vxlUO-18" value="" style="edgeStyle=orthogonalEdgeStyle;rounded=0;orthogonalLoop=1;jettySize=auto;html=1;" edge="1" parent="1" source="Ul7BXX21oTJpgW4vxlUO-15" target="Ul7BXX21oTJpgW4vxlUO-17">
          <mxGeometry relative="1" as="geometry" />
        </mxCell>
        <mxCell id="Ul7BXX21oTJpgW4vxlUO-15" value="加密密码验证" style="whiteSpace=wrap;html=1;rounded=0;" vertex="1" parent="1">
          <mxGeometry x="434" y="530" width="120" height="60" as="geometry" />
        </mxCell>
        <mxCell id="Ul7BXX21oTJpgW4vxlUO-19" style="edgeStyle=orthogonalEdgeStyle;rounded=0;orthogonalLoop=1;jettySize=auto;html=1;entryX=0.5;entryY=1;entryDx=0;entryDy=0;" edge="1" parent="1" source="Ul7BXX21oTJpgW4vxlUO-17" target="Ul7BXX21oTJpgW4vxlUO-8">
          <mxGeometry relative="1" as="geometry" />
        </mxCell>
        <mxCell id="Ul7BXX21oTJpgW4vxlUO-23" value="否" style="edgeLabel;html=1;align=center;verticalAlign=middle;resizable=0;points=[];" vertex="1" connectable="0" parent="Ul7BXX21oTJpgW4vxlUO-19">
          <mxGeometry x="0.3133" y="-3" relative="1" as="geometry">
            <mxPoint as="offset" />
          </mxGeometry>
        </mxCell>
        <mxCell id="Ul7BXX21oTJpgW4vxlUO-21" value="" style="edgeStyle=orthogonalEdgeStyle;rounded=0;orthogonalLoop=1;jettySize=auto;html=1;" edge="1" parent="1" source="Ul7BXX21oTJpgW4vxlUO-17" target="Ul7BXX21oTJpgW4vxlUO-20">
          <mxGeometry relative="1" as="geometry" />
        </mxCell>
        <mxCell id="Ul7BXX21oTJpgW4vxlUO-27" value="是" style="edgeLabel;html=1;align=center;verticalAlign=middle;resizable=0;points=[];" vertex="1" connectable="0" parent="Ul7BXX21oTJpgW4vxlUO-21">
          <mxGeometry x="-0.1" y="2" relative="1" as="geometry">
            <mxPoint as="offset" />
          </mxGeometry>
        </mxCell>
        <mxCell id="Ul7BXX21oTJpgW4vxlUO-17" value="是否正确" style="rhombus;whiteSpace=wrap;html=1;rounded=0;" vertex="1" parent="1">
          <mxGeometry x="454" y="630" width="80" height="80" as="geometry" />
        </mxCell>
        <mxCell id="Ul7BXX21oTJpgW4vxlUO-20" value="登录成功" style="whiteSpace=wrap;html=1;rounded=0;" vertex="1" parent="1">
          <mxGeometry x="434" y="750" width="120" height="60" as="geometry" />
        </mxCell>
      </root>
    </mxGraphModel>
  </diagram>
</mxfile>
